<svg width="27" height="27" viewBox="0 0 27 27" fill="none" xmlns="http://www.w3.org/2000/svg">
<path d="M8.07498 0.583496H18.925C23.0583 0.583496 26.4166 3.94183 26.4166 8.07516V18.9252C26.4166 20.9121 25.6273 22.8176 24.2224 24.2226C22.8174 25.6275 20.9119 26.4168 18.925 26.4168H8.07498C3.94165 26.4168 0.583313 23.0585 0.583313 18.9252V8.07516C0.583313 6.08825 1.37261 4.18271 2.77757 2.77775C4.18253 1.37279 6.08807 0.583496 8.07498 0.583496ZM7.81665 3.16683C6.58339 3.16683 5.40064 3.65674 4.5286 4.52878C3.65656 5.40083 3.16665 6.58357 3.16665 7.81683V19.1835C3.16665 21.7539 5.24623 23.8335 7.81665 23.8335H19.1833C20.4166 23.8335 21.5993 23.3436 22.4714 22.4715C23.3434 21.5995 23.8333 20.4168 23.8333 19.1835V7.81683C23.8333 5.24641 21.7537 3.16683 19.1833 3.16683H7.81665ZM20.2812 5.10433C20.7094 5.10433 21.1201 5.27444 21.4229 5.57723C21.7257 5.88002 21.8958 6.2907 21.8958 6.71891C21.8958 7.14713 21.7257 7.5578 21.4229 7.8606C21.1201 8.16339 20.7094 8.3335 20.2812 8.3335C19.853 8.3335 19.4423 8.16339 19.1395 7.8606C18.8368 7.5578 18.6666 7.14713 18.6666 6.71891C18.6666 6.2907 18.8368 5.88002 19.1395 5.57723C19.4423 5.27444 19.853 5.10433 20.2812 5.10433ZM13.5 7.04183C15.2128 7.04183 16.8555 7.72226 18.0667 8.93343C19.2779 10.1446 19.9583 11.7873 19.9583 13.5002C19.9583 15.213 19.2779 16.8557 18.0667 18.0669C16.8555 19.2781 15.2128 19.9585 13.5 19.9585C11.7871 19.9585 10.1444 19.2781 8.93325 18.0669C7.72208 16.8557 7.04165 15.213 7.04165 13.5002C7.04165 11.7873 7.72208 10.1446 8.93325 8.93343C10.1444 7.72226 11.7871 7.04183 13.5 7.04183ZM13.5 9.62516C12.4723 9.62516 11.4866 10.0334 10.7599 10.7601C10.0332 11.4868 9.62498 12.4724 9.62498 13.5002C9.62498 14.5279 10.0332 15.5135 10.7599 16.2402C11.4866 16.9669 12.4723 17.3752 13.5 17.3752C14.5277 17.3752 15.5133 16.9669 16.24 16.2402C16.9667 15.5135 17.375 14.5279 17.375 13.5002C17.375 12.4724 16.9667 11.4868 16.24 10.7601C15.5133 10.0334 14.5277 9.62516 13.5 9.62516Z" fill="white"/>
</svg>
