<svg width="91" height="15" viewBox="0 0 91 15" fill="none" xmlns="http://www.w3.org/2000/svg">
<path d="M26.5 1.25L28.4312 5.1625L32.75 5.79375L29.625 8.8375L30.3625 13.1375L26.5 11.1062L22.6375 13.1375L23.375 8.8375L20.25 5.79375L24.5687 5.1625L26.5 1.25Z" fill="#FFA033" stroke="#FFA033" stroke-linecap="round" stroke-linejoin="round"/>
<path d="M7.5 1.25L9.43125 5.1625L13.75 5.79375L10.625 8.8375L11.3625 13.1375L7.5 11.1062L3.6375 13.1375L4.375 8.8375L1.25 5.79375L5.56875 5.1625L7.5 1.25Z" fill="#FFA033" stroke="#FFA033" stroke-linecap="round" stroke-linejoin="round"/>
<path d="M45.5 1.25L47.4312 5.1625L51.75 5.79375L48.625 8.8375L49.3625 13.1375L45.5 11.1062L41.6375 13.1375L42.375 8.8375L39.25 5.79375L43.5687 5.1625L45.5 1.25Z" fill="#FFA033" stroke="#FFA033" stroke-linecap="round" stroke-linejoin="round"/>
<path d="M64.5 1.25L66.4312 5.1625L70.75 5.79375L67.625 8.8375L68.3625 13.1375L64.5 11.1062L60.6375 13.1375L61.375 8.8375L58.25 5.79375L62.5687 5.1625L64.5 1.25Z" fill="#FFA033" stroke="#FFA033" stroke-linecap="round" stroke-linejoin="round"/>
<path d="M83.5 1.25L85.4312 5.1625L89.75 5.79375L86.625 8.8375L87.3625 13.1375L83.5 11.1062L79.6375 13.1375L80.375 8.8375L77.25 5.79375L81.5687 5.1625L83.5 1.25Z" stroke="#FFA033" stroke-linecap="round" stroke-linejoin="round"/>
</svg>
