<svg width="33" height="30" viewBox="0 0 33 30" fill="none" xmlns="http://www.w3.org/2000/svg">
<path d="M29.7728 0.870101C29.3815 0.898566 28.9975 0.990353 28.6357 1.14188H28.6308C28.2835 1.2796 26.6321 1.97429 24.1214 3.02729L15.1246 6.81638C8.66891 9.53419 2.32288 12.2106 2.32288 12.2106L2.39845 12.1813C2.39845 12.1813 1.96091 12.3251 1.50388 12.6384C1.22153 12.818 0.97857 13.0531 0.789696 13.3294C0.565446 13.6584 0.385071 14.1618 0.452102 14.6822C0.561789 15.5621 1.13216 16.0899 1.54166 16.3811C1.95604 16.6761 2.35091 16.8138 2.35091 16.8138H2.36066L8.31182 18.8186C8.57873 19.6754 10.1253 24.76 10.497 25.9313C10.7164 26.6308 10.9297 27.0684 11.1966 27.4023C11.3258 27.5729 11.4769 27.7155 11.6585 27.8301C11.7529 27.885 11.8536 27.9284 11.9583 27.9593L11.8974 27.9446C11.9157 27.9495 11.9303 27.9641 11.9437 27.969C11.9924 27.9824 12.0254 27.9873 12.0875 27.997C13.0296 28.2822 13.7864 27.6972 13.7864 27.6972L13.8291 27.6631L17.3428 24.4639L23.2318 28.9818L23.3658 29.0391C24.5931 29.5778 25.8362 29.2779 26.4931 28.749C27.1549 28.2164 27.4121 27.5351 27.4121 27.5351L27.4547 27.4254L32.0055 4.11198C32.1347 3.53673 32.1676 2.99804 32.025 2.4752C31.878 1.94604 31.5385 1.49094 31.0732 1.19916C30.6825 0.961647 30.2294 0.847004 29.7728 0.870101ZM29.6497 3.36854C29.6448 3.44532 29.6594 3.43679 29.6253 3.58426V3.59766L25.1172 26.6686C25.0977 26.7015 25.0648 26.7734 24.9746 26.8453C24.8795 26.9209 24.8039 26.9684 24.4079 26.8112L17.205 21.289L12.8541 25.2549L13.7682 19.417L25.5364 8.44829C26.0215 7.99735 25.8594 7.90229 25.8594 7.90229C25.8935 7.34898 25.1269 7.7402 25.1269 7.7402L10.2874 16.9332L10.2825 16.9089L3.16991 14.514V14.5091L3.15163 14.5055C3.1641 14.5013 3.17631 14.4965 3.1882 14.4909L3.2272 14.4714L3.26498 14.4579C3.26498 14.4579 9.61588 11.7816 16.0716 9.06376C19.3037 7.70241 22.5602 6.33132 25.0648 5.27345C26.5501 4.64823 28.037 4.02667 29.5254 3.40876C29.6253 3.36976 29.5778 3.36976 29.6497 3.36976V3.36854Z" fill="white"/>
</svg>
